<?xml version="1.0" encoding="UTF-8"?>
<svg version="1.1" viewBox="0 0 1600 1600" width="1280" height="1280" xmlns="http://www.w3.org/2000/svg">
<path transform="translate(0)" d="m0 0h1600v1600h-1600v-1600z" fill="#F9FCFE"/>
<path transform="translate(823 351)" d="m0 0c1.56-0.0118 1.56-0.0118 3.15-0.0238 33.6-0.199 66.3 5.54 91.4 29.7 11.2 11.7 19.8 25.2 26.8 39.7 0.526 1.08 0.526 1.08 1.06 2.18 0.32 0.684 0.639 1.37 0.969 2.07 0.284 0.603 0.568 1.21 0.861 1.83 0.749 2.37 0.707 4.45 0.607 6.92-3.65 0.0588-7.29 0.0939-10.9 0.125-1.02 0.0168-2.04 0.0335-3.1 0.0508-6.32 0.0404-11.8-0.556-18-2.18 1.42 4.39 3.82 7.28 6.88 10.6 10.5 12 18.2 26.1 25.6 40.1 0.642 1.2 0.642 1.2 1.3 2.43 0.374 0.712 0.748 1.42 1.13 2.16 0.955 1.82 0.955 1.82 3.05 2.65-0.0116-0.75-0.0232-1.5-0.0352-2.27-0.0874-9.91 0.118-18.5 4.04-27.7 3.29 4.93 3.6 10.8 4.58 16.6 0.265 1.53 0.539 3.06 0.825 4.59 3.19 17.1 3.02 34.1 2.92 51.3-0.0135 3.1-0.00825 6.19-0.00287 9.29 0.00338 3.04-0.00336 6.08-0.0131 9.11-0.00378 1.42-0.00503 2.85-0.00341 4.27 0.00274 14.4-1.56 28.2-5.05 42.1-0.264 1.07-0.528 2.14-0.8 3.24-7.55 30-20 64.9-43.5 86.5-2 1.12-2 1.12-4 1-1.17-1.16-2.33-2.33-3.47-3.51-2.9-2.82-6.18-5.18-9.41-7.61-0.737-0.56-1.47-1.12-2.23-1.7-7.24-5.48-14.5-10.8-21.9-16.2 1.49-3.13 3.23-5.98 5.12-8.88 1.29-2.04 2.59-4.08 3.88-6.12 0.951-1.48 0.951-1.48 1.92-2.99 22.6-37.1 27.9-87.6 21.4-130-0.365-2.5-0.655-5.01-0.941-7.52-1.18-10.1-2.81-19.5-6.14-29.1-1.13-3.25-2.07-6.51-2.99-9.82-5.9-19.2-15.8-37.1-28.2-52.8-0.715-0.982-0.715-0.982-1.45-1.98-13.7-17.9-42.1-26.1-63.3-29.3-14.7-1.88-39-2.42-51.3 6.88-2.59 3.27-2.48 6.08-2.43 10.1-0.0075 0.775-0.015 1.55-0.0227 2.35-0.0203 2.6-0.0122 5.2-0.00419 7.8-0.00873 1.86-0.0192 3.73-0.0313 5.59-0.0279 5.06-0.0313 10.1-0.0303 15.2-0.00312 5.29-0.0287 10.6-0.052 15.9-0.0406 10-0.0609 20-0.074 30-0.0159 11.4-0.0543 22.8-0.0946 34.2-0.0825 23.4-0.137 46.9-0.172 70.3-4.24-1.6-7.35-3.58-10.9-6.38-0.556-0.433-1.11-0.865-1.68-1.31-6.12-4.81-12-9.91-17.9-15-1.44-1.22-2.93-2.37-4.42-3.51-0.691-0.585-1.38-1.17-2.09-1.77v-2c-0.556-0.213-1.11-0.425-1.68-0.645-3.1-1.81-5.13-4.3-7.38-7.04-0.434-0.505-0.868-1.01-1.31-1.53-5.97-7.19-7.07-13-7.01-22.1-0.00537-1.01-0.0107-2.02-0.0163-3.07-0.00976-2.19-0.0127-4.38-0.00964-6.57 0.0045-3.48-0.00957-6.96-0.0284-10.4-0.0367-7.39-0.0505-14.8-0.0609-22.2-0.0121-8.55-0.0339-17.1-0.08-25.7-0.0135-3.41-0.00942-6.81-0.00459-10.2 0.547-20.2 0.547-20.2-7.63-37.9-3.31-3.09-6.85-5.42-10.8-7.66-1.21-0.721-1.21-0.721-2.44-1.46-8.49-4.68-17.6-7.15-26.9-9.83-5.66-1.65-11.2-3.63-16.7-5.71-0.317-13.2-0.317-13.2 2-18 3.14-1.57 6.49-1.15 9.94-1.12 1.22 0.0029 1.22 0.0029 2.46 0.00586 4.65 0.0323 9.28 0.183 13.9 0.48 34.2 2.18 67.9-0.749 102-3.84 20.3-1.84 40.5-2.82 60.8-2.89z" fill="#000100"/>
<path transform="translate(699,621)" d="m0 0c10.1 3.94 18.6 10.9 27.3 17.2 4.36 3.16 8.71 6.07 13.4 8.71 9.43 5.36 9.43 5.36 12.3 9.06 1.28 7.28 1.19 14.7 1.26 22 0.0215 2.2 0.0485 4.4 0.0767 6.6 0.0593 4.71 0.111 9.41 0.163 14.1 0.0686 6.14 0.141 12.3 0.219 18.4 0.0144 1.14 0.0144 1.14 0.029 2.3 0.147 11.3 0.458 22.6 0.881 33.9 0.48 13 0.717 26.1 0.903 39.1 0.0309 2.14 0.0631 4.29 0.0955 6.43 0.302 20.4 0.407 40.8 0.4 61.2-3.92e-4 1.12-7.84e-4 2.23-0.00119 3.38-0.0053 11.2-0.0208 22.3-0.0539 33.5-0.0118 4.2-0.0199 8.4-0.0276 12.6-0.00692 2.89-0.0196 5.79-0.0324 8.68-1.27 15.4-1.27 15.4 3.01 28.9 2.02 1.71 3.57 2.63 6.04 3.54 0.786 0.297 1.57 0.593 2.38 0.899 0.855 0.309 1.71 0.618 2.59 0.937 0.902 0.336 1.8 0.671 2.73 1.02 5.57 2.05 11.2 4 16.8 5.92 0.953 0.327 0.953 0.327 1.93 0.66 3.13 1.07 6.27 2.13 9.41 3.18 19.9 6.73 19.9 6.73 23 11.1 1.89 3.83 1.63 6.22 1.22 10.5-1.02 2.22-1.02 2.22-3 4-2.81 0.379-5.17 0.495-7.98 0.406-0.796-0.0134-1.59-0.0268-2.41-0.0406-8.24-0.227-16.3-1.31-24.5-2.5-14.1-2.05-27.9-3.77-42.1-2.86-1.15 0.072-2.3 0.144-3.48 0.218-2.66 0.169-5.31 0.338-7.96 0.509-0.696 0.0447-1.39 0.0893-2.11 0.135-1.42 0.0918-2.84 0.185-4.27 0.278-22.2 1.45-44.4 1.04-66.7 0.422-0.73-0.0195-1.46-0.0389-2.21-0.059-2.04-0.0566-4.09-0.122-6.13-0.187-1.17-0.0367-2.33-0.0733-3.54-0.111-2.62-0.205-2.62-0.205-3.62-1.21-0.478-7.4-0.478-7.4 1.21-9.51 2.16-1.8 4.06-2.49 6.73-3.36 1.48-0.489 1.48-0.489 2.99-0.987 1.58-0.505 1.58-0.505 3.19-1.02 1.61-0.529 1.61-0.529 3.26-1.07 6.33-2.06 12.7-3.96 19.1-5.74 7.01-1.97 13.3-4 17.5-10.3 3.78-14.5 2.16-31.3 2.17-46.2 0.00392-2.52 0.00802-5.05 0.0123-7.57 0.00929-6.84 0.0103-13.7 0.00822-20.5-0.00105-3.58-4.24e-4 -7.16 6.43e-4 -10.7 0.0145-54.2-0.609-108-1.48-163-0.0234-1.47-0.0469-2.93-0.0703-4.4-0.0172-1.08-0.0172-1.08-0.0347-2.18-0.0453-2.84-0.0906-5.68-0.136-8.52-0.033-2.07-0.0662-4.13-0.0994-6.2-0.331-20.7-0.516-41.4-0.371-62.1z" fill="#000100"/>
<path transform="translate(699,1084)" d="m0 0c6.86-0.0768 13.7-0.129 20.6-0.165 2.33-0.015 4.66-0.0354 6.99-0.0615 35.1-0.384 35.1-0.384 44.2 7.87 0.469 0.57 0.938 1.14 1.42 1.73 0.48 0.565 0.959 1.13 1.45 1.71 4.5 6.65 3.95 14.2 3.3 21.9-1.83 6.79-8.39 11.8-14.2 15.3-3.18 1.67-5.16 2.67-8.81 2.67 2.64 6.06 6.57 11.1 10.6 16.3 0.712 0.938 1.42 1.88 2.16 2.84 4.47 5.79 8.91 10.9 14.7 15.4 0.536 0.471 1.07 0.941 1.62 1.43v2c-3.58 0.116-7.17 0.187-10.8 0.25-1.02 0.0335-2.03 0.067-3.08 0.102-7.51 0.0988-7.51 0.0988-10.7-2.05-0.499-0.761-0.998-1.52-1.51-2.3-0.556-0.786-1.11-1.57-1.68-2.38-0.579-0.905-1.16-1.81-1.75-2.74-1.04-1.56-1.04-1.56-2.11-3.15-1.33-1.99-2.62-3.99-3.88-6.02-5.93-10.4-5.93-10.4-15.3-17.1-3.29-0.26-6.08-0.26-9.31 0.406-1.87 1.87-1.13 5.03-1.13 7.52-9.57e-4 0.655-0.00191 1.31-0.0029 1.98-6.82e-4 1.39 0.00117 2.78 0.00534 4.17 0.00532 2.12 6.87e-5 4.24-0.00635 6.36 6.61e-4 1.35 0.00194 2.7 0.00391 4.05 0.00113 1.23 0.00226 2.46 0.00342 3.73 0.0281 3.36 0.0281 3.36 1.13 7.19h-21c0-2.83 0.0153-5.65 0.0333-8.48 0.0557-8.76 0.0947-17.5 0.122-26.3 0.0157-4.85 0.037-9.7 0.0709-14.6 0.0325-4.69 0.0505-9.38 0.0583-14.1 0.00555-1.79 0.0164-3.58 0.0326-5.37 0.0217-2.5 0.0248-5 0.0234-7.5 0.0108-0.742 0.0216-1.48 0.0327-2.25 0.0237-3.98 0.0237-3.98-1.89-7.34-0.732-0.565-0.732-0.565-1.48-1.14v-2z" fill="#000100"/>
<path transform="translate(819,1084)" d="m0 0c7.49-0.0506 15-0.0857 22.5-0.11 2.55-0.0101 5.1-0.0237 7.65-0.041 3.66-0.0242 7.32-0.0356 11-0.0444 1.72-0.0155 1.72-0.0155 3.47-0.0313 1.06-1.51e-4 2.12-3.02e-4 3.21-4.58e-4 0.935-0.00444 1.87-0.00888 2.83-0.0135 2.37 0.241 2.37 0.241 5.37 2.24-0.433 1.11-0.866 2.23-1.31 3.38-1.56 4.11-2.78 8.28-3.94 12.5-0.746 2.1-0.746 2.1-2.75 4.1v-3h-2c-0.351-1.2-0.701-2.39-1.06-3.62-1.84-4.84-4.53-7.69-8.94-10.4-5.32-2.27-9.31-1.86-15-1-0.0463 10.5-0.0819 21-0.104 31.5-0.0104 4.87-0.0246 9.74-0.0473 14.6-0.0217 4.7-0.0337 9.4-0.0389 14.1-0.0037 1.79-0.0109 3.59-0.0217 5.38-0.0145 2.51-0.0165 5.02-0.0156 7.53-0.00719 0.743-0.0144 1.49-0.0218 2.25 0.0161 4.03 0.389 5.92 2.25 9.64h-23c0-3 0-3 1-4 0.1-2.54 0.136-5.05 0.129-7.59 0.00175-0.795 0.0035-1.59 0.00531-2.41 0.00442-2.64 0.00148-5.28-0.00189-7.93 6.73e-4 -1.83 0.00164-3.66 0.0029-5.49 0.00148-3.84-6.78e-4 -7.68-0.00534-11.5-0.00569-4.93-0.00242-9.86 0.00357-14.8 0.00361-3.78 0.00246-7.56-1.28e-4 -11.3-6.68e-4 -1.82 1.55e-4 -3.63 0.00248-5.45 0.00254-2.54-0.00133-5.08-0.0069-7.62 0.00202-0.754 0.00405-1.51 0.00613-2.29-0.0127-3.13-0.138-5.57-1.14-8.57z" fill="#000100"/>
<path transform="translate(475,1084)" d="m0 0c3.05-0.272 6.07-0.468 9.12-0.625 0.856-0.0838 1.71-0.168 2.59-0.254 2.73-0.105 4.67 0.0501 7.28 0.879 1.55 1.83 1.55 1.83 2.9 4.26 0.761 1.36 0.761 1.36 1.54 2.75 2.74 5.21 5.39 10.5 7.99 15.7 0.895 1.81 1.79 3.61 2.69 5.42 2.18 4.41 4.36 8.82 6.54 13.2 1.23 2.5 2.46 4.99 3.7 7.48 1.16 2.34 2.32 4.68 3.47 7.02 0.521 1.05 1.04 2.1 1.58 3.18 0.686 1.39 0.686 1.39 1.39 2.81 1.05 2.24 1.05 2.24 3.23 3.1v2h2c-1.37 7.48-3.92 14.1-7 21-2.3-0.153-2.3-0.153-5-1-1.71-2.37-1.71-2.37-3.26-5.56-0.287-0.579-0.574-1.16-0.869-1.75-0.944-1.92-1.86-3.84-2.78-5.77-0.654-1.34-1.31-2.67-1.97-4-1.73-3.51-3.44-7.04-5.14-10.6-2.72-5.64-5.47-11.3-8.23-16.9-0.959-1.96-1.91-3.93-2.85-5.9-0.59-1.21-1.18-2.42-1.77-3.63-0.763-1.58-0.763-1.58-1.54-3.19-1.58-2.74-3.25-4.64-5.59-6.75 0.0673 7.38 0.157 14.8 0.262 22.1 0.0332 2.51 0.0612 5.02 0.084 7.53 0.0337 3.62 0.0861 7.23 0.142 10.9 0.00639 1.11 0.0128 2.23 0.0194 3.37 0.156 8.35 1.77 14.7 5.49 22.1h-12c0-3 0-3 2-6 0.333-3.16 0.333-3.16 0.322-6.82 0.00993-0.69 0.0199-1.38 0.0301-2.09 0.0292-2.28 0.0428-4.57 0.0539-6.85 0.0115-1.59 0.023-3.18 0.0345-4.77 0.021-3.34 0.0327-6.68 0.0397-10 0.0109-4.26 0.0589-8.52 0.116-12.8 0.0374-3.29 0.0477-6.58 0.0507-9.87 0.00603-1.57 0.022-3.14 0.0484-4.71 0.378-10.1 0.378-10.1-3.74-18.9-0.551-0.559-1.1-1.12-1.67-1.7-1.29-1.47-1.29-1.47-1.29-4.47z" fill="#000100"/>
<path transform="translate(733 1087)" d="m0 0c0.926-0.0245 1.85-0.049 2.8-0.0742 7.25-0.0307 12.8 1.29 18.1 6.38 0.446 0.642 0.892 1.28 1.35 1.95 0.461 0.637 0.923 1.27 1.4 1.93 3.3 5.91 3.59 11.4 3.6 18 0.0245 0.851 0.049 1.7 0.0742 2.58 0.0278 6.09-0.807 11.6-4.45 16.6-2.6 1.05-2.6 1.05-6 1-1.63 0.0674-3.27 0.135-4.9 0.203-1.83 0.0211-3.65 0.0366-5.48 0.0469-0.908 0.0206-1.82 0.0412-2.75 0.0625-1.34 0.00773-1.34 0.00773-2.71 0.0156-1.2 0.014-1.2 0.014-2.42 0.0283-3.87-0.503-7.12-1.9-10.7-3.36-0.0493-6.09-0.0857-12.2-0.11-18.3-0.0101-2.07-0.0237-4.14-0.041-6.22-0.0242-2.97-0.0356-5.95-0.0444-8.92-0.0103-0.93-0.0206-1.86-0.0313-2.82-1.51e-4 -0.861-3.02e-4 -1.72-4.58e-4 -2.61-0.00444-0.759-0.00888-1.52-0.0135-2.3 0.754-5.87 7.96-4.24 12.4-4.25z" fill="#FAFDFF"/>
<path transform="translate(647,1083)" d="m0 0c0.948 1.63 0.948 1.63 1.76 3.77 0.31 0.796 0.62 1.59 0.939 2.41 0.488 1.3 0.488 1.3 0.987 2.63 0.713 1.85 1.43 3.69 2.14 5.54 0.362 0.945 0.723 1.89 1.1 2.86 1.31 3.39 2.67 6.76 4.04 10.1 2.92 7.19 5.71 14.4 8.4 21.7 3.12 8.45 6.31 16.8 9.95 25.1 0.313 0.716 0.626 1.43 0.949 2.17 1.45 3.21 2.97 6.17 4.97 9.07 1.77 2.63 1.77 2.63 1.77 4.63h-28l-1-2c1.98-0.495 1.98-0.495 4-1-0.258-1.88-0.532-3.75-0.812-5.62-0.151-1.04-0.302-2.09-0.457-3.16-0.733-3.81-0.733-3.81-3.73-9.21-5.61-0.33-11.2-0.66-17-1v-1c7.92-0.495 7.92-0.495 16-1-3.67-10.9-7.78-21.6-12.2-32.2-0.264-0.638-0.527-1.28-0.799-1.93-2.51-6.06-5.03-12-8.01-17.9l-3 3c-0.493-7.39-0.493-7.39 1.67-10.1 2.52-2.09 5.02-3.68 7.89-5.25 0.95-0.532 1.9-1.06 2.88-1.61 2.56-1.07 2.56-1.07 5.56-0.0742z" fill="#000100"/>
<path transform="translate(417,1087)" d="m0 0c-0.33 0.66-0.66 1.32-1 2h-2c-1.76 6.25-2.93 11.6-1.19 18 6.01 8.25 15 10.8 24.5 13.2 10.4 2.7 19.7 6.49 25.7 15.8 2.31 4.43 2.37 8.55 2.38 13.4 0.0245 0.738 0.049 1.48 0.0742 2.24 0.0355 6.65-2.51 10.1-6.82 15.1-2.82 2.41-5.06 3.34-8.62 4.25 0.33-1.07 0.66-2.14 1-3.25 1.6-6.58 2.83-14.6-0.75-20.7-5.39-6.23-14.7-7.96-22.3-10-9.7-2.67-20.3-7.33-26.2-15.9-3-5.46-4.55-10.7-3.06-16.9 2.3-6.9 4.95-11.7 10.8-16.1 2.72-1.23 4.55-1.38 7.5-1.12z" fill="#000100"/>
<path transform="translate(563 1084)" d="m0 0c1.18 9.67e-4 1.18 9.67e-4 2.39 0.00195 0.82 0.0161 1.64 0.0322 2.48 0.0488 1.23-0.00483 1.23-0.00483 2.48-0.00977 6.11 0.055 6.11 0.055 9.52 2.32-0.645 0.53-1.29 1.06-1.95 1.61-2.63 3.07-2.63 4.68-2.78 8.7-0.0283 0.675-0.0566 1.35-0.0858 2.05-0.0904 2.55-0.137 5.1-0.176 7.65-0.0169 1.09-0.0338 2.19-0.0512 3.31-0.104 7.88-0.135 15.7-0.134 23.6 1.03e-4 3.51-0.0137 7.02-0.0308 10.5-0.0138 3.39-0.0132 6.77-0.0144 10.2-0.00719 1.25-0.0144 2.51-0.0218 3.8 0.00308 1.17 0.00615 2.34 0.00932 3.54-0.00143 1.02-0.00285 2.04-0.00432 3.1 0.181 3.52 0.181 3.52 2.25 8.93h-21c0-3.29 0.0453-6.57 0.0918-9.86 0.00975-0.693 0.0195-1.39 0.0296-2.1 0.0323-2.29 0.0648-4.58 0.0974-6.87 0.0224-1.59 0.0449-3.18 0.0673-4.76 0.059-4.18 0.118-8.35 0.178-12.5 0.0605-4.26 0.121-8.53 0.181-12.8 0.118-8.36 0.237-16.7 0.355-25.1-0.66-0.33-1.32-0.66-2-1l-2 4c-1.55-3.1-0.246-5.2 0.75-8.44 0.345-1.15 0.691-2.31 1.05-3.5 1.78-4.53 3.36-6.45 8.33-6.43z" fill="#000100"/>
<path transform="translate(785 677)" d="m0 0c4.57 1.07 8.05 2.86 12.1 5.21 0.776 0.442 1.55 0.884 2.35 1.34 8.98 5.17 17.7 10.7 26.4 16.3 1.14 0.746 1.14 0.746 2.31 1.51 2.2 1.44 4.38 2.9 6.56 4.37 0.648 0.428 1.3 0.856 1.96 1.3 4.15 2.83 7.1 5.84 10.2 9.83-2.56 2.56-3.51 2.3-7.06 2.31-22.5-0.485-38.6-8.88-54.3-24.7-3.26-3.57-6-7.07-7.67-11.7 0.125-2.25 0.125-2.25 1-4 3-2 3-2 6.17-1.89z" fill="#000100"/>
<path transform="translate(429,1082)" d="m0 0c11.9 0.389 22.9 2.16 32.7 9.24 1.98 2.69 1.75 4.5 1.29 7.76-1.68 2.77-1.68 2.77-3.88 5.38-0.719 0.874-1.44 1.75-2.18 2.65-0.642 0.652-1.28 1.3-1.95 1.98h-2c-0.231-0.641-0.461-1.28-0.699-1.94-2.16-5.72-4.64-10.2-8.3-15.1v-2c-0.743-0.289-1.49-0.578-2.25-0.875-2.75-1.12-2.75-1.12-4.56-2.19-2.77-1.19-4.94-1.13-7.94-1.06-0.985 0.018-1.97 0.0361-2.98 0.0547-0.748 0.0232-1.5 0.0464-2.27 0.0703 0.959-0.155 0.959-0.155 1.94-0.312 0.681-0.227 1.36-0.454 2.06-0.688 0.33-0.99 0.66-1.98 1-3z" fill="#000100"/>
<path transform="translate(406,1149)" d="m0 0c2 1 2 1 2.75 3.22 0.4 1.41 0.4 1.41 0.809 2.84 2.48 7.13 6.97 11.5 13.6 15.1 2.06 0.939 2.06 0.939 4.86 1.84v2c1.32 0.66 2.64 1.32 4 2-2.33-0.331-4.67-0.665-7-1-1.16-0.156-2.32-0.312-3.51-0.473-9.87-1.61-16.4-4.77-24.5-10.5 1.39-3.89 3.22-6.97 5.62-10.3 0.632-0.883 1.26-1.77 1.91-2.68 0.482-0.664 0.964-1.33 1.46-2.01z" fill="#000100"/>
<path transform="translate(795 1084)" d="m0 0c0.839 0.00822 1.68 0.0164 2.54 0.0249 0.92 0.00387 1.84 0.00773 2.79 0.0117 0.958 0.0245 1.92 0.049 2.9 0.0742 1.43 0.00193 1.43 0.00193 2.89 0.00391 7.73 0.0974 7.73 0.0974 11.7 2.37-0.773 0.231-1.55 0.461-2.34 0.699-10.8 3.37-17.3 6.82-23.7 16.3h-2c-0.33 0.99-0.66 1.98-1 3-0.902-4.32-0.983-7.78-0.25-12.1 0.16-1.01 0.32-2.03 0.484-3.07 0.998-3.66 2.04-6.42 5.97-7.29z" fill="#000100"/>
<path transform="translate(600,1162)" d="m0 0c3.25 1.63 3.7 4.73 5 8 0.33 0.99 0.66 1.98 1 3h-12c0-3.61 0.817-4.41 3-7.19 0.557-0.715 1.11-1.43 1.69-2.17 0.433-0.543 0.866-1.09 1.31-1.64z" fill="#000100"/>
<path transform="translate(610,1142)" d="m0 0c1.1 3.29 0.8 4.71 0 8h5c-2.05 1.1-3.68 1.96-6 2.25-2.24 0.591-2.24 0.591-3.27 3.04-0.325 0.917-0.65 1.83-0.984 2.78-0.335 0.919-0.67 1.84-1.02 2.79-0.242 0.71-0.485 1.42-0.734 2.15-1.27-3.8-0.501-5.36 0.75-9.12 0.345-1.08 0.691-2.15 1.05-3.26 0.397-0.864 0.794-1.73 1.2-2.62 0.99-0.33 1.98-0.66 3-1 0.33-1.65 0.66-3.3 1-5z" fill="#000100"/>
</svg>
